<svg width="90" height="30" viewBox="0 0 90 30" fill="none" xmlns="http://www.w3.org/2000/svg">
  <path d="M86.0685 17.2022L82.7142 23.9343V27.1019H80.3575V23.9623L76.9896 17.2021H79.637L81.5361 21.2326L83.4347 17.2021L86.0685 17.2022ZM73.5053 20.1087C72.9976 19.5755 72.3553 19.3093 71.5788 19.3093C70.8028 19.3093 70.1609 19.5755 69.6524 20.1087C69.1439 20.641 68.89 21.3225 68.89 22.1523C68.89 22.9817 69.1439 23.6628 69.6524 24.196C70.1609 24.7283 70.8024 24.9945 71.5788 24.9945C72.3553 24.9945 72.9976 24.7283 73.5053 24.196C74.0138 23.6628 74.268 22.9817 74.268 22.1523C74.268 21.3225 74.0138 20.641 73.5053 20.1087ZM67.9686 18.4963C68.9435 17.511 70.1469 17.0186 71.5793 17.0186C73.0112 17.0186 74.215 17.511 75.1899 18.4963C76.1643 19.4811 76.6517 20.6999 76.6517 22.1523C76.6517 23.6043 76.1643 24.8227 75.1899 25.8079C74.215 26.7932 73.0112 27.2856 71.5793 27.2856C70.1469 27.2856 68.9435 26.7932 67.9686 25.8079C66.9938 24.8227 66.5064 23.6043 66.5064 22.1523C66.5064 20.6999 66.9938 19.4811 67.9686 18.4963ZM62.7588 20.54C62.7588 19.8422 62.3567 19.4934 61.5533 19.4934H59.848V21.5583H61.5533C62.3567 21.5583 62.7588 21.2188 62.7588 20.54ZM62.8697 27.102L60.5826 23.6651H59.848V27.102H57.4921V17.2023H61.8162C62.842 17.2023 63.6528 17.497 64.2487 18.0865C64.845 18.6754 65.1428 19.4839 65.1428 20.5118C65.1428 22.0294 64.4959 23.0053 63.2023 23.4392L65.7528 27.1019L62.8697 27.102ZM55.9069 17.2023V19.4934H53.2591V27.102H50.9029V19.4934H48.2696V17.2023H55.9069ZM43.1636 20.8652C44.6238 21.1857 45.6561 21.5653 46.2611 22.0037C46.8666 22.4422 47.1693 23.1419 47.1693 24.1041C47.1693 24.5657 47.0889 24.9833 46.927 25.3554C46.7651 25.7278 46.5572 26.032 46.303 26.2678C46.0491 26.5037 45.7534 26.7013 45.4159 26.8619C45.0789 27.0219 44.7459 27.1326 44.4179 27.1943C44.09 27.255 43.7599 27.2858 43.4274 27.2858C42.7155 27.2858 42.0873 27.187 41.5424 26.989C40.9967 26.7912 40.563 26.5223 40.2394 26.1827C39.916 25.8436 39.6662 25.4809 39.4911 25.094C39.3151 24.7073 39.1996 24.2879 39.1445 23.8353H41.5283C41.648 24.2593 41.8451 24.5658 42.1176 24.7545C42.3901 24.9431 42.8224 25.0374 43.4133 25.0374C44.3376 25.0374 44.7993 24.7591 44.7993 24.2031C44.7993 23.9672 44.6908 23.8 44.4738 23.7012C44.2564 23.6023 43.8104 23.4817 43.1359 23.3407C43.0622 23.3307 43.0046 23.3215 42.9632 23.3121C42.9214 23.3025 42.8659 23.2886 42.7971 23.27C42.7276 23.2509 42.6605 23.2364 42.5959 23.2273C42.1337 23.1331 41.7387 23.0241 41.4106 22.9018C41.0826 22.7794 40.7526 22.6076 40.4195 22.3857C40.0868 22.164 39.833 21.8741 39.6574 21.5161C39.4814 21.1578 39.3939 20.7333 39.3939 20.2428C39.3939 19.5549 39.581 18.9581 39.9556 18.454C40.3299 17.9498 40.7941 17.5842 41.3484 17.3581C41.9022 17.1318 42.499 17.0189 43.1363 17.0189C44.4113 17.0189 45.3658 17.3254 45.9982 17.9381C46.6313 18.5507 46.9941 19.3378 47.0869 20.3H44.7024C44.6196 19.9698 44.4643 19.7151 44.2382 19.5364C44.0121 19.3569 43.6444 19.2671 43.1359 19.2671C42.6555 19.2671 42.3068 19.35 42.0894 19.5152C41.8728 19.6802 41.7639 19.8848 41.7639 20.1301C41.7639 20.3282 41.8496 20.4696 42.0203 20.5545C42.1917 20.6393 42.4986 20.7291 42.9421 20.8233C42.9884 20.8324 43.0278 20.8398 43.0601 20.8448C43.092 20.8493 43.1268 20.8561 43.1636 20.8657V20.8652Z" fill="#2B2A29"/>
  <path d="M82.9221 5.52134C82.4144 6.05361 82.1602 6.73516 82.1602 7.56506C82.1602 8.39433 82.4144 9.0755 82.9221 9.60865C83.4306 10.1409 84.0729 10.4071 84.8494 10.4071C85.625 10.4071 86.2673 10.1409 86.7758 9.60865C87.2843 9.0755 87.5378 8.39433 87.5378 7.56506C87.5378 6.73516 87.2843 6.05361 86.7758 5.52134C86.2673 4.98819 85.625 4.72199 84.8494 4.72199C84.0729 4.72199 83.4306 4.98819 82.9221 5.52134ZM89.9218 7.56506C89.9218 8.94122 89.4878 10.1007 88.619 11.0438L89.9218 12.7976L88.1341 14.1832L86.7617 12.3451C86.1522 12.5809 85.5144 12.6982 84.849 12.6982C83.417 12.6982 82.2127 12.2058 81.2383 11.2206C80.2635 10.2353 79.7757 9.01689 79.7757 7.56506C79.7757 6.1126 80.2635 4.89379 81.2383 3.90906C82.2127 2.92367 83.417 2.4313 84.849 2.4313C86.2814 2.4313 87.4848 2.92367 88.46 3.90906C89.4344 4.89379 89.9218 6.1126 89.9218 7.56506ZM73.2564 8.17262H75.3353L74.2963 5.08981L73.2564 8.17262ZM76.8049 12.5147L76.1121 10.4642H72.4804L71.7872 12.5147H69.2926L72.8129 2.61495H75.7788L79.2999 12.5147H76.8049ZM63.8541 10.2236H68.1923V12.5147H60.8738V10.2236L65.1846 4.9063H61.0958V2.61508H68.1509L68.1646 4.9063L63.8541 10.2236ZM53.7308 8.17262H55.8097L54.7703 5.08981L53.7308 8.17262ZM57.2789 12.5147L56.5861 10.4642H52.9548L52.2616 12.5147H49.767L53.2873 2.61495H56.2532L59.7739 12.5147H57.2789ZM42.2907 5.52151C41.783 6.05374 41.5288 6.73529 41.5288 7.56523C41.5288 8.39446 41.783 9.07562 42.2907 9.60878C42.7992 10.141 43.4415 10.4072 44.218 10.4072C44.9936 10.4072 45.6359 10.141 46.1444 9.60878C46.6529 9.07562 46.9064 8.39446 46.9064 7.56523C46.9064 6.73529 46.6529 6.05374 46.1444 5.52151C45.6359 4.98831 44.9936 4.72212 44.218 4.72212C43.4415 4.72212 42.7992 4.98831 42.2907 5.52151ZM49.2904 7.56523C49.2904 8.94134 48.8564 10.1008 47.9876 11.0439L49.2904 12.7977L47.5027 14.1833L46.1303 12.3452C45.5208 12.581 44.883 12.6983 44.2176 12.6983C42.7856 12.6983 41.5813 12.206 40.607 11.2207C39.6321 10.2354 39.1445 9.01702 39.1445 7.56523C39.1445 6.11272 39.6321 4.89392 40.607 3.90919C41.5813 2.9238 42.7856 2.43144 44.2176 2.43144C45.6495 2.43144 46.8534 2.9238 47.8286 3.90919C48.803 4.89392 49.2904 6.11272 49.2904 7.56523Z" fill="#2B2A29"/>
  <path fill-rule="evenodd" clip-rule="evenodd" d="M14.6079 0C22.6762 0 29.2171 6.67314 29.2171 14.9056C29.2171 17.0701 28.7646 19.1263 27.9513 20.9823L33.9978 29.8113H22.1949L17.9338 23.5893L20.0027 28.7614C18.3334 29.4387 16.5135 29.812 14.6079 29.812C6.54095 29.812 0 23.1385 0 14.9059C0 6.67339 6.54095 0 14.6079 0ZM14.6083 8.2773C16.4064 8.2773 18.0334 9.02269 19.2096 10.2266L17.4091 12.0806C18.7679 13.005 19.6635 14.5836 19.6635 16.3755C19.6635 19.1794 17.4704 21.4619 14.7385 21.5321L14.6083 21.534H14.6079C12.8102 21.5335 11.1832 20.7888 10.0075 19.5847L11.8075 17.7312C10.4481 16.8068 9.55259 15.2277 9.55259 13.4363C9.55259 10.5872 11.8164 8.2778 14.6083 8.2778L14.6079 8.2773H14.6083Z" fill="url(#paint0_linear_2_13483)"/>
  <defs>
    <linearGradient id="paint0_linear_2_13483" x1="27.2115" y1="27.0311" x2="6.3116" y2="3.19713" gradientUnits="userSpaceOnUse">
      <stop stop-color="#0078BF"/>
      <stop offset="1" stop-color="#00A0E3"/>
    </linearGradient>
  </defs>
</svg>
